<svg width="29" height="30" viewBox="0 0 29 30" fill="none" xmlns="http://www.w3.org/2000/svg">
<path d="M25.2761 6.14783V24.6283C25.2761 25.0508 25.1082 25.456 24.8095 25.7548C24.5107 26.0536 24.1055 26.2214 23.6829 26.2214H5.20252C4.77999 26.2214 4.37477 26.0536 4.076 25.7548C3.77722 25.456 3.60938 25.0508 3.60938 24.6283V6.14783C3.60938 5.7253 3.77722 5.32008 4.076 5.02131C4.37477 4.72254 4.77999 4.55469 5.20252 4.55469H23.6829C24.1055 4.55469 24.5107 4.72254 24.8095 5.02131C25.1082 5.32008 25.2761 5.7253 25.2761 6.14783ZM9.98194 12.839H6.79566V23.0351H9.98194V12.839ZM10.2687 9.33411C10.2704 9.09309 10.2246 8.85411 10.1339 8.63079C10.0432 8.40748 9.90942 8.20422 9.74018 8.03261C9.57094 7.861 9.36955 7.72441 9.14752 7.63064C8.92549 7.53686 8.68717 7.48773 8.44615 7.48607H8.3888C7.89866 7.48607 7.42861 7.68077 7.08203 8.02735C6.73546 8.37392 6.54075 8.84398 6.54075 9.33411C6.54075 9.82424 6.73546 10.2943 7.08203 10.6409C7.42861 10.9874 7.89866 11.1822 8.3888 11.1822C8.62983 11.1881 8.86967 11.1465 9.09461 11.0597C9.31955 10.9729 9.52519 10.8426 9.69977 10.6763C9.87435 10.51 10.0145 10.311 10.1121 10.0905C10.2097 9.87003 10.2629 9.6325 10.2687 9.39146V9.33411ZM22.0898 16.841C22.0898 13.7758 20.1398 12.5841 18.2025 12.5841C17.5682 12.5524 16.9367 12.6875 16.3709 12.9759C15.8051 13.2644 15.3249 13.6962 14.978 14.2282H14.8888V12.839H11.8937V23.0351H15.08V17.6121C15.0339 17.0567 15.2089 16.5055 15.5668 16.0783C15.9248 15.6512 16.4368 15.3825 16.9918 15.3307H17.1128C18.1261 15.3307 18.878 15.9679 18.878 17.5738V23.0351H22.0643L22.0898 16.841Z" fill="white"/>
</svg>
