<svg xmlns="http://www.w3.org/2000/svg" viewBox="140 115 156 200" height="24" width="24">
  <path fill="#fff" style="transform: scale(0.75); transform-origin: center;" d="M159.03,260.44c-1.26,1.75-3.29,2.79-5.45,2.79h0c-3.71,0-6.72-3.01-6.72-6.72v-86.61c0-9.61,7.79-17.4,17.4-17.4h136.12c9.61,0,17.4,7.79,17.4,17.4v47.82c0,9.16-7.43,16.59-16.59,16.59h-123.33l-18.83,26.13ZM280,190.01h-95.63v7.3h95.63v-7.3Z"/>
  <path fill="#fff" style="transform: scale(0.75); transform-origin: center;" d="M336.88,250.02h-127.21c-8.98,0-16.26,7.28-16.26,16.26v42.09c0,8.56,6.94,15.5,15.5,15.5h115.26l15.4,23.64h13.58v-81.23c0-8.98-7.28-16.26-16.26-16.26ZM237.32,292.91c-8.43,0-8.42-13.09,0-13.09s8.42,13.09,0,13.09ZM272.81,293.29c-8.43,0-8.42-13.09,0-13.09s8.42,13.09,0,13.09ZM308.29,292.52c-8.43,0-8.42-13.09,0-13.09s8.42,13.09,0,13.09Z"/>
</svg>