<svg xmlns="http://www.w3.org/2000/svg" viewBox="140 115 156 200" height="24" width="24">
  <path d="M295.61,167.53c41.47,4.55,48.87,34.32,47,62.01,0,65.91-92.61,102.92-92.61,102.92,0,0-92.61-37.01-92.61-102.92-1.87-27.69,5.53-57.47,47-62.01,32.67,0,42.01,22.2,44.63,33.01.25,1.04,1.72,1.04,1.97,0,2.61-10.82,11.96-33.01,44.63-33.01M295.61,148.8c-13.18,0-24.86,2.88-34.71,8.57-3.98,2.3-7.62,5.02-10.9,8.16-3.28-3.13-6.92-5.86-10.9-8.16-9.85-5.69-21.53-8.57-34.71-8.57-.68,0-1.36.04-2.04.11-12.55,1.38-23.53,4.82-32.63,10.23-8.86,5.27-15.99,12.39-21.19,21.16-7.8,13.17-11.12,29.94-9.86,49.88.13,18.64,6.09,36.73,17.72,53.79,8.83,12.96,20.95,25.3,36.02,36.69,24.87,18.79,49.6,28.78,50.64,29.19,2.23.89,4.59,1.34,6.95,1.34s4.72-.45,6.95-1.34c1.04-.42,25.77-10.4,50.64-29.19,15.07-11.39,27.19-23.73,36.02-36.69,11.63-17.06,17.59-35.15,17.72-53.79,1.26-19.94-2.06-36.72-9.86-49.88-5.2-8.77-12.33-15.89-21.19-21.16-9.1-5.41-20.08-8.86-32.63-10.23-.68-.07-1.36-.11-2.04-.11h0Z" 
  style="transform: scale(0.75); transform-origin: center;" fill="#fff"></path>
</svg>